<?xml version="1.0" encoding="UTF-8"?>
<svg id="Layer_1" data-name="Layer 1" xmlns="http://www.w3.org/2000/svg" viewBox="0 0 1237.88 588.01">
  <defs>
    <style>
      .cls-1 {
        fill: #9CA3AF;
      }
    </style>
  </defs>
  <g>
    <path class="cls-1" d="M326.28,542.69l-45.29,37.06c-13.17,10.78-32.03,11.04-45.5.63L61.1,444.64l-46.27-35.75C5.48,401.67,0,390.52,0,378.71v-86.96c0-3.37,3.87-5.27,6.53-3.21h0s126.18,97.5,126.18,97.5l193.48,150.47c2.01,1.55,2.05,4.58.09,6.19Z"/>
    <path class="cls-1" d="M178.24,45.32l45.29-37.06c13.17-10.78,32.03-11.04,45.5-.63l170.04,131.38,52.1,40.16c9.35,7.22,14.82,18.37,14.82,30.19v86.96c0,3.37-3.87,5.27-6.53,3.21h0s-132.01-101.91-132.01-101.91L178.33,51.5c-2.01-1.55-2.05-4.58-.09-6.19Z"/>
    <path class="cls-1" d="M223.4,311.82l-36.08,29.53c-9.91,8.11-24.1,8.31-34.24.48l-92.78-71.69-47.7-36.85c-16.5-12.74-16.85-37.52-.71-50.73l42.25-34.57,65.94-53.96c9.91-8.11,24.1-8.31,34.24-.48l41.4,31.98c10.87,8.4,11.1,24.73.47,33.43l-62.08,50.79,88.84,68.65c10.87,8.4,11.1,24.73.47,33.43Z"/>
    <path class="cls-1" d="M282.6,276.38l36.08-29.53c9.91-8.11,24.1-8.31,34.24-.48l92.78,71.69,47.7,36.85c16.5,12.74,16.85,37.52.71,50.73l-42.25,34.57-65.94,53.96c-9.91,8.11-24.1,8.31-34.24.48l-41.4-31.98c-10.87-8.4-11.1-24.73-.47-33.43l62.08-50.79-88.84-68.65c-10.87-8.4-11.1-24.73-.47-33.43Z"/>
  </g>
  <g>
    <path class="cls-1" d="M631.99,154.21c.24,2.2.72,4.12,1.47,5.77.74,1.65,1.72,3.02,2.94,4.12,1.22,1.1,2.65,1.96,4.3,2.59,1.65.63,3.53.94,5.65.94,1.65,0,3.14-.18,4.47-.53,1.33-.35,2.49-.82,3.47-1.41.98-.59,1.75-1.35,2.3-2.29.55-.94.82-2.04.82-3.3s-.26-2.33-.77-3.24c-.51-.9-1.39-1.71-2.65-2.41-1.26-.71-2.96-1.37-5.12-2-2.16-.63-4.88-1.29-8.18-2-5.18-1.02-9.73-2.18-13.65-3.47-3.92-1.29-7.18-2.92-9.77-4.88-2.59-1.96-4.51-4.33-5.77-7.12-1.26-2.78-1.88-6.22-1.88-10.3,0-3.84.74-7.37,2.24-10.59,1.49-3.22,3.73-5.98,6.71-8.3,2.98-2.31,6.57-4.1,10.77-5.35,4.2-1.25,9-1.88,14.42-1.88,5.81,0,10.93.76,15.36,2.29,4.43,1.53,8.18,3.67,11.24,6.41,3.06,2.75,5.39,6,7,9.77,1.61,3.77,2.57,7.89,2.88,12.36h-24.24c-.16-1.8-.55-3.49-1.18-5.06-.63-1.57-1.47-2.88-2.53-3.94-1.06-1.06-2.32-1.9-3.77-2.53-1.45-.63-3.08-.94-4.88-.94-1.57,0-2.96.2-4.18.59-1.22.39-2.28.9-3.18,1.53-.9.63-1.59,1.39-2.06,2.3-.47.9-.71,1.9-.71,3,0,1.33.31,2.45.94,3.35.63.9,1.61,1.71,2.94,2.41,1.33.71,3,1.32,5,1.82,2,.51,4.37,1,7.12,1.47,5.81.94,10.75,2.18,14.83,3.71,4.08,1.53,7.37,3.34,9.89,5.41,2.51,2.08,4.31,4.51,5.41,7.3,1.1,2.79,1.65,5.94,1.65,9.47,0,4.16-.81,7.89-2.41,11.18-1.61,3.3-3.92,6.1-6.94,8.42-3.02,2.31-6.71,4.08-11.06,5.3s-9.24,1.82-14.65,1.82c-6.04,0-11.42-.75-16.12-2.24-4.71-1.49-8.69-3.61-11.95-6.36-3.26-2.75-5.77-6.08-7.53-10-1.77-3.92-2.73-8.32-2.88-13.18h24.24Z"/>
    <path class="cls-1" d="M703.67,100.19h31.42l28.48,84.15h-24.95l-4.71-14.83h-29.19l-4.83,14.83h-24.72l28.48-84.15ZM728.5,151.39l-9.18-29.07-9.18,29.07h18.36Z"/>
    <path class="cls-1" d="M771.22,119.02h-25.07v-18.83h73.56v18.83h-25.07v65.32h-23.42v-65.32Z"/>
    <path class="cls-1" d="M821.13,100.19h23.42v32.37h26.01v-32.37h23.3v84.15h-23.3v-33.19h-26.01v33.19h-23.42v-84.15Z"/>
    <path class="cls-1" d="M897.74,100.19h23.42v84.15h-23.42v-84.15Z"/>
    <path class="cls-1" d="M947.88,100.19h31.42l28.48,84.15h-24.95l-4.71-14.83h-29.19l-4.83,14.83h-24.72l28.48-84.15ZM972.71,151.39l-9.18-29.07-9.18,29.07h18.36Z"/>
    <path class="cls-1" d="M1006.02,100.19h25.19l27.78,49.55v-49.55h23.42v84.15h-25.77l-27.19-46.96v46.96h-23.42v-84.15Z"/>
    <path class="cls-1" d="M631.99,295.45c.24,2.2.72,4.12,1.47,5.77.74,1.65,1.72,3.02,2.94,4.12,1.22,1.1,2.65,1.96,4.3,2.59,1.65.63,3.53.94,5.65.94,1.65,0,3.14-.18,4.47-.53,1.33-.35,2.49-.82,3.47-1.41.98-.59,1.75-1.35,2.3-2.29.55-.94.82-2.04.82-3.3s-.26-2.33-.77-3.24c-.51-.9-1.39-1.71-2.65-2.41-1.26-.71-2.96-1.37-5.12-2-2.16-.63-4.88-1.29-8.18-2-5.18-1.02-9.73-2.18-13.65-3.47-3.92-1.29-7.18-2.92-9.77-4.88-2.59-1.96-4.51-4.33-5.77-7.12-1.26-2.78-1.88-6.22-1.88-10.3,0-3.84.74-7.37,2.24-10.59,1.49-3.22,3.73-5.98,6.71-8.3,2.98-2.31,6.57-4.1,10.77-5.35,4.2-1.25,9-1.88,14.42-1.88,5.81,0,10.93.76,15.36,2.29,4.43,1.53,8.18,3.67,11.24,6.41,3.06,2.75,5.39,6,7,9.77,1.61,3.77,2.57,7.89,2.88,12.36h-24.24c-.16-1.8-.55-3.49-1.18-5.06-.63-1.57-1.47-2.88-2.53-3.94-1.06-1.06-2.32-1.9-3.77-2.53-1.45-.63-3.08-.94-4.88-.94-1.57,0-2.96.2-4.18.59-1.22.39-2.28.9-3.18,1.53-.9.63-1.59,1.39-2.06,2.3-.47.9-.71,1.9-.71,3,0,1.33.31,2.45.94,3.35.63.9,1.61,1.71,2.94,2.41,1.33.71,3,1.32,5,1.82,2,.51,4.37,1,7.12,1.47,5.81.94,10.75,2.18,14.83,3.71,4.08,1.53,7.37,3.34,9.89,5.41,2.51,2.08,4.31,4.51,5.41,7.3,1.1,2.79,1.65,5.94,1.65,9.47,0,4.16-.81,7.89-2.41,11.18-1.61,3.3-3.92,6.1-6.94,8.42-3.02,2.31-6.71,4.08-11.06,5.3s-9.24,1.82-14.65,1.82c-6.04,0-11.42-.75-16.12-2.24-4.71-1.49-8.69-3.61-11.95-6.36-3.26-2.75-5.77-6.08-7.53-10-1.77-3.92-2.73-8.32-2.88-13.18h24.24Z"/>
    <path class="cls-1" d="M683.6,265.26c2.08-5.37,5.04-9.94,8.89-13.71,3.84-3.77,8.45-6.67,13.83-8.71,5.37-2.04,11.36-3.06,17.95-3.06s12.67,1,18.01,3c5.33,2,9.92,4.9,13.77,8.71,3.84,3.81,6.79,8.4,8.83,13.77,2.04,5.38,3.06,11.48,3.06,18.3s-1.02,12.93-3.06,18.3c-2.04,5.37-4.96,9.94-8.77,13.71-3.81,3.77-8.4,6.65-13.77,8.65-5.38,2-11.4,3-18.07,3s-12.57-1-17.95-3c-5.38-2-9.99-4.88-13.83-8.65-3.85-3.77-6.81-8.36-8.89-13.77-2.08-5.41-3.12-11.49-3.12-18.24s1.04-12.93,3.12-18.3ZM705.9,294.09c.94,3.1,2.27,5.71,4,7.83,1.72,2.12,3.8,3.73,6.24,4.83,2.43,1.1,5.1,1.65,8,1.65s5.69-.55,8.12-1.65c2.43-1.1,4.51-2.71,6.24-4.83,1.72-2.12,3.06-4.73,4-7.83.94-3.1,1.41-6.61,1.41-10.53s-.47-7.55-1.41-10.65c-.94-3.1-2.28-5.71-4-7.83-1.73-2.12-3.81-3.73-6.24-4.83-2.43-1.1-5.14-1.65-8.12-1.65s-5.57.55-8,1.65c-2.43,1.1-4.51,2.71-6.24,4.83-1.73,2.12-3.06,4.73-4,7.83s-1.41,6.65-1.41,10.65.47,7.44,1.41,10.53Z"/>
    <path class="cls-1" d="M770.04,241.43h62.38v18.83h-38.96v15.18h36.72v18.83h-36.72v31.31h-23.42v-84.15Z"/>
    <path class="cls-1" d="M857.02,260.26h-25.07v-18.83h73.56v18.83h-25.07v65.32h-23.42v-65.32Z"/>
    <path class="cls-1" d="M902.33,241.43h24.95l11.53,57.2,11.53-57.2h25.54l11.42,57.2,11.42-57.2h24.95l-21.42,84.15h-27.19l-12-52.02-12,52.02h-27.07l-21.66-84.15Z"/>
    <path class="cls-1" d="M1038.62,241.43h31.42l28.48,84.15h-24.95l-4.71-14.83h-29.19l-4.83,14.83h-24.72l28.48-84.15ZM1063.46,292.62l-9.18-29.07-9.18,29.07h18.36Z"/>
    <path class="cls-1" d="M1096.65,241.43h38.96c11.61,0,20.2,2.35,25.78,7.06,5.57,4.71,8.36,11.57,8.36,20.6s-2.79,16.01-8.36,20.71c-5.57,4.71-14.16,7.06-25.78,7.06h-15.54v28.72h-23.42v-84.15ZM1134.54,278.97c3.69,0,6.51-.74,8.47-2.24,1.96-1.49,2.94-3.88,2.94-7.18s-.98-5.57-2.94-7.06c-1.96-1.49-4.79-2.24-8.47-2.24h-14.48v18.71h14.48ZM1128.66,291.09h24.25l19.3,34.48h-26.95l-16.59-34.48Z"/>
    <path class="cls-1" d="M1173.73,241.43h63.67v18.83h-40.25v13.77h37.9v18.6h-37.9v14.12h40.72v18.83h-64.14v-84.15Z"/>
    <path class="cls-1" d="M610.92,382.66h23.42v32.37h26.01v-32.37h23.3v84.15h-23.3v-33.19h-26.01v33.19h-23.42v-84.15Z"/>
    <path class="cls-1" d="M688.89,406.49c2.08-5.37,5.04-9.94,8.89-13.71,3.84-3.77,8.45-6.67,13.83-8.71,5.37-2.04,11.36-3.06,17.95-3.06s12.67,1,18.01,3c5.33,2,9.92,4.9,13.77,8.71,3.84,3.81,6.79,8.4,8.83,13.77,2.04,5.38,3.06,11.48,3.06,18.3s-1.02,12.93-3.06,18.3c-2.04,5.37-4.96,9.94-8.77,13.71-3.81,3.77-8.4,6.65-13.77,8.65-5.38,2-11.4,3-18.07,3s-12.57-1-17.95-3c-5.38-2-9.99-4.88-13.83-8.65-3.85-3.77-6.81-8.36-8.89-13.77-2.08-5.41-3.12-11.49-3.12-18.24s1.04-12.93,3.12-18.3ZM711.2,435.33c.94,3.1,2.27,5.71,4,7.83,1.72,2.12,3.8,3.73,6.24,4.83,2.43,1.1,5.1,1.65,8,1.65s5.69-.55,8.12-1.65c2.43-1.1,4.51-2.71,6.24-4.83,1.72-2.12,3.06-4.73,4-7.83.94-3.1,1.41-6.61,1.41-10.53s-.47-7.55-1.41-10.65c-.94-3.1-2.28-5.71-4-7.83-1.73-2.12-3.81-3.73-6.24-4.83-2.43-1.1-5.14-1.65-8.12-1.65s-5.57.55-8,1.65c-2.43,1.1-4.51,2.71-6.24,4.83-1.73,2.12-3.06,4.73-4,7.83s-1.41,6.65-1.41,10.65.47,7.44,1.41,10.53Z"/>
    <path class="cls-1" d="M774.87,382.66h23.42v51.79c0,4.94,1.18,8.71,3.53,11.3,2.35,2.59,5.81,3.88,10.36,3.88s7.9-1.29,10.3-3.88c2.39-2.59,3.59-6.36,3.59-11.3v-51.79h23.3v52.61c0,5.18-.86,9.81-2.59,13.89-1.73,4.08-4.2,7.57-7.41,10.48-3.22,2.9-7.14,5.1-11.77,6.59-4.63,1.49-9.81,2.24-15.54,2.24s-10.77-.75-15.36-2.24c-4.59-1.49-8.49-3.69-11.71-6.59-3.22-2.9-5.71-6.39-7.47-10.48-1.77-4.08-2.65-8.71-2.65-13.89v-52.61Z"/>
    <path class="cls-1" d="M874.32,436.68c.24,2.2.72,4.12,1.47,5.77.74,1.65,1.72,3.02,2.94,4.12,1.22,1.1,2.65,1.96,4.3,2.59,1.65.63,3.53.94,5.65.94,1.65,0,3.14-.18,4.47-.53,1.33-.35,2.49-.82,3.47-1.41.98-.59,1.75-1.35,2.3-2.29.55-.94.82-2.04.82-3.3s-.26-2.33-.77-3.24c-.51-.9-1.39-1.71-2.65-2.41-1.26-.71-2.96-1.37-5.12-2-2.16-.63-4.88-1.29-8.18-2-5.18-1.02-9.73-2.18-13.65-3.47-3.92-1.29-7.18-2.92-9.77-4.88-2.59-1.96-4.51-4.33-5.77-7.12-1.26-2.78-1.88-6.22-1.88-10.3,0-3.84.74-7.37,2.24-10.59,1.49-3.22,3.73-5.98,6.71-8.3,2.98-2.31,6.57-4.1,10.77-5.35,4.2-1.25,9-1.88,14.42-1.88,5.81,0,10.93.76,15.36,2.29,4.43,1.53,8.18,3.67,11.24,6.41,3.06,2.75,5.39,6,7,9.77,1.61,3.77,2.57,7.89,2.88,12.36h-24.24c-.16-1.8-.55-3.49-1.18-5.06-.63-1.57-1.47-2.88-2.53-3.94-1.06-1.06-2.32-1.9-3.77-2.53-1.45-.63-3.08-.94-4.88-.94-1.57,0-2.96.2-4.18.59-1.22.39-2.28.9-3.18,1.53-.9.63-1.59,1.39-2.06,2.3-.47.9-.71,1.9-.71,3,0,1.33.31,2.45.94,3.35.63.9,1.61,1.71,2.94,2.41,1.33.71,3,1.32,5,1.82,2,.51,4.37,1,7.12,1.47,5.81.94,10.75,2.18,14.83,3.71,4.08,1.53,7.37,3.34,9.89,5.41,2.51,2.08,4.31,4.51,5.41,7.3,1.1,2.79,1.65,5.94,1.65,9.47,0,4.16-.81,7.89-2.41,11.18-1.61,3.3-3.92,6.1-6.94,8.42-3.02,2.31-6.71,4.08-11.06,5.3s-9.24,1.82-14.65,1.82c-6.04,0-11.42-.75-16.12-2.24-4.71-1.49-8.69-3.61-11.95-6.36-3.26-2.75-5.77-6.08-7.53-10-1.77-3.92-2.73-8.32-2.88-13.18h24.24Z"/>
    <path class="cls-1" d="M924.93,382.66h63.67v18.83h-40.25v13.77h37.9v18.6h-37.9v14.12h40.72v18.83h-64.14v-84.15Z"/>
  </g>
</svg>
