<?xml version="1.0" standalone="no"?>
<!DOCTYPE svg PUBLIC "-//W3C//DTD SVG 20010904//EN"
 "http://www.w3.org/TR/2001/REC-SVG-20010904/DTD/svg10.dtd">
<svg version="1.0" xmlns="http://www.w3.org/2000/svg"
 width="954.000000pt" height="189.000000pt" viewBox="0 0 954.000000 189.000000"
 preserveAspectRatio="xMidYMid meet">

<g transform="translate(0.000000,189.000000) scale(0.100000,-0.100000)"
fill="#000000" stroke="none">
<path d="M766 1584 c-179 -43 -304 -178 -343 -373 -30 -145 16 -285 117 -353
85 -58 142 -68 380 -68 283 -1 310 -9 310 -96 0 -35 -5 -47 -35 -73 l-36 -31
-418 0 c-323 0 -421 -3 -428 -12 -8 -11 -63 -264 -63 -290 0 -5 197 -8 438 -8
483 0 514 3 624 62 248 132 337 490 164 657 -83 80 -186 101 -494 101 -192 0
-193 0 -217 25 -43 42 -24 119 38 152 29 16 74 19 427 23 l395 5 27 135 c15
74 27 141 27 148 1 19 -832 16 -913 -4z"/>
<path d="M2210 1589 c-193 -28 -340 -155 -391 -339 -21 -77 -16 -207 10 -267
30 -68 101 -134 177 -163 54 -22 79 -24 312 -29 l254 -6 24 -28 c51 -60 14
-148 -71 -167 -22 -5 -217 -10 -432 -10 l-393 0 -5 -22 c-18 -72 -51 -268 -47
-273 10 -9 816 -5 887 5 144 21 300 129 358 250 97 201 65 395 -80 492 -71 48
-134 58 -375 58 -165 0 -227 3 -252 14 -68 28 -67 126 0 171 27 19 53 20 429
25 l399 5 28 130 c15 72 28 138 28 148 0 16 -25 17 -402 16 -222 -1 -428 -5
-458 -10z"/>
<path d="M3295 1548 c-2 -7 -10 -47 -19 -88 -23 -114 -110 -524 -152 -715 -48
-223 -94 -439 -94 -443 0 -1 66 -1 148 0 l147 3 51 245 c46 224 52 245 72 250
13 3 86 64 163 135 l140 130 -125 5 c-68 3 -127 8 -130 11 -3 3 16 110 42 237
27 128 46 234 44 237 -3 3 -68 5 -144 5 -102 0 -140 -3 -143 -12z"/>
<path d="M4165 1548 c-2 -7 -22 -101 -45 -208 -23 -107 -46 -212 -51 -232
l-10 -38 -77 0 -78 0 -139 -134 -140 -135 188 0 c103 -1 187 -3 187 -5 0 -2
-22 -111 -50 -242 -27 -131 -50 -241 -50 -246 0 -4 65 -8 145 -8 142 0 145 0
150 22 22 102 265 1229 265 1233 0 3 -65 5 -145 5 -108 0 -147 -3 -150 -12z"/>
<path d="M5040 1531 c-227 -48 -412 -194 -515 -406 -56 -115 -75 -186 -82
-310 -18 -338 193 -540 544 -522 189 10 366 89 498 221 149 150 225 335 225
550 0 151 -51 279 -144 363 -121 109 -317 148 -526 104z m254 -261 c50 -24
100 -83 123 -143 21 -57 16 -197 -10 -274 -67 -197 -207 -306 -398 -307 -76
-1 -92 2 -145 29 -115 59 -161 181 -131 342 35 183 152 325 305 369 72 21 197
13 256 -16z"/>
<path d="M5950 1526 c0 -2 -34 -165 -75 -362 -42 -198 -78 -391 -82 -431 -12
-140 30 -258 120 -338 157 -142 496 -138 714 7 167 112 258 264 312 523 57
275 121 589 121 597 0 4 -60 8 -134 8 -131 0 -134 -1 -139 -22 -3 -13 -33
-156 -67 -318 -34 -162 -68 -322 -76 -354 -33 -127 -98 -217 -192 -263 -50
-24 -69 -28 -147 -28 -80 0 -95 3 -137 27 -64 38 -93 99 -91 188 1 51 68 394
143 733 l8 37 -139 0 c-76 0 -139 -2 -139 -4z"/>
<path d="M7495 1514 c-149 -29 -265 -115 -326 -240 -29 -59 -34 -79 -37 -164
-4 -83 -1 -102 18 -143 49 -104 132 -138 394 -162 176 -16 227 -30 245 -63 16
-29 14 -78 -5 -113 -29 -56 -49 -59 -427 -59 l-344 0 -22 -107 c-12 -60 -25
-116 -28 -126 -5 -18 12 -18 374 -14 410 4 416 4 524 64 28 15 77 55 109 89
78 84 103 149 104 269 1 99 -11 133 -68 193 -62 67 -125 86 -351 108 -93 9
-184 23 -202 31 -67 31 -65 118 5 171 l35 27 323 3 c294 3 323 5 328 20 9 30
46 206 46 219 0 19 -597 17 -695 -3z"/>
<path d="M8385 1443 c-10 -49 -21 -105 -25 -125 l-7 -38 463 0 464 0 5 23 c20
89 45 209 45 217 0 7 -158 10 -464 10 l-463 0 -18 -87z"/>
<path d="M8326 1173 c-10 -32 -176 -829 -176 -844 0 -11 694 -12 866 -2 l92 6
21 106 c11 58 21 112 21 119 0 9 -74 12 -335 12 -184 0 -335 3 -335 8 1 4 11
57 23 117 l23 110 309 5 309 5 22 105 c13 58 23 111 23 118 1 9 -66 12 -304
12 -237 0 -305 3 -305 13 0 6 6 38 14 70 l13 57 -138 0 c-122 0 -138 -2 -143
-17z"/>
</g>
</svg>
